<svg width="100" height="70" viewBox="0 0 100 70" fill="none" xmlns="http://www.w3.org/2000/svg">
<path d="M51.1968 40.8747C52.7233 40.8747 53.9609 39.6372 53.9609 38.1106C53.9609 36.584 52.7233 35.3464 51.1968 35.3464C49.6702 35.3464 48.4326 36.584 48.4326 38.1106C48.4326 39.6372 49.6702 40.8747 51.1968 40.8747Z" fill="white"/>
<path d="M77.3177 41.2826C78.7316 41.2826 79.8777 40.1365 79.8777 38.7227C79.8777 37.3088 78.7316 36.1627 77.3177 36.1627C75.9039 36.1627 74.7578 37.3088 74.7578 38.7227C74.7578 40.1365 75.9039 41.2826 77.3177 41.2826Z" fill="white"/>
<path d="M88.6857 41.6195C88.2038 41.2127 87.7026 40.8231 87.1903 40.4498C87.8765 35.7637 87.0221 30.4743 84.1478 26.7261C81.6839 23.5134 77.9721 21.4031 74.0822 20.4216C72.7319 20.0808 71.2693 19.8314 69.8286 19.7828C69.7711 16.3385 69.7134 12.8937 69.6561 9.44937C69.6354 8.21524 68.5035 7.41495 67.331 7.67827C63.6903 8.49599 60.2068 10.1681 56.9962 12.0359C55.5187 12.8955 54.1152 13.8574 52.7646 14.9043C52.2047 15.3386 51.6421 15.813 51.1462 16.3426C48.1331 14.7072 44.5398 14.1379 41.1656 14.1143C37.4825 14.0886 33.7288 14.7446 30.229 15.8783C22.7967 18.2861 17.0525 24.6194 13.2243 31.2177C10.8901 35.241 9.27258 39.7517 9.02644 44.4201C8.80551 48.6067 9.9427 53.832 13.434 56.4971C16.808 59.0727 21.6198 59.4004 25.6747 58.8414C29.607 58.2994 32.3406 55.9189 34.128 52.4606C36.0036 48.8315 36.8924 44.7675 37.8849 40.8357C38.2718 39.3036 38.6596 37.7574 39.2389 36.284C39.2515 36.2613 39.3437 36.0472 39.3613 36.0099C39.4876 35.7431 39.6288 35.4828 39.7644 35.2208C40.102 34.5693 40.4575 33.9271 40.8177 33.2877C41.5523 31.9837 42.3381 30.7085 43.1478 29.4499C44.0785 28.0033 45.0585 26.5883 46.0726 25.1995C46.3941 24.7592 46.7214 24.3231 47.0528 23.8902C47.0675 23.8712 47.0849 23.8494 47.1078 23.8201C47.1378 23.7818 47.1681 23.7437 47.1983 23.7057C47.8226 22.9242 47.9647 21.8746 47.1983 21.1084C46.5495 20.4596 45.2267 20.3251 44.601 21.1084C42.3092 23.9766 40.245 27.0432 38.3653 30.194C37.205 32.1386 36.0652 34.1256 35.3433 36.2803C34.7782 37.9671 34.3796 39.7107 33.9476 41.4343C33.0142 45.1606 32.1142 49.0859 29.9546 52.3151C29.1509 53.5171 27.9988 54.4247 26.8048 54.8237C25.019 55.4205 23.1989 55.486 21.3038 55.3641C19.4589 55.2456 17.5877 54.7785 16.0082 53.8279C14.5428 52.9455 13.8234 51.3142 13.2823 49.5484C12.02 45.4287 12.8799 41.0353 14.408 37.1141C16.0079 33.0085 18.6249 29.2353 21.6139 26.0236C22.9406 24.5979 24.4074 23.2334 25.9571 22.1024C26.6384 21.6053 27.3498 21.1504 28.0838 20.7346C28.3412 20.5891 28.6041 20.4539 28.8699 20.3244C28.9909 20.2655 29.1136 20.2098 29.2362 20.1541C29.3081 20.1213 29.354 20.1003 29.3849 20.0858C29.3982 20.081 29.4234 20.0709 29.4711 20.0514C32.5237 18.7987 35.875 18.0885 39.0567 17.8582C42.7901 17.588 46.6297 17.9638 49.888 19.863C53.2583 21.8278 54.6567 25.285 55.8118 28.8267C56.4145 30.6748 56.9274 32.5527 57.3993 34.4384C57.6207 35.323 57.6858 36.5083 58.1575 37.3135C58.6344 38.1275 59.9329 38.5746 60.7107 39.0121C62.1569 39.8253 63.5844 40.6732 64.9726 41.5821C65.5182 41.9394 66.3955 42.5591 66.6286 42.7434C66.8741 42.938 67.1103 43.1435 67.3386 43.3581C67.4211 43.4353 67.4983 43.5173 67.5758 43.5996C67.6015 43.6839 67.6221 43.7277 67.6194 43.6521C67.6514 43.9844 67.651 44.3195 67.6381 44.6529C67.6152 45.2602 67.455 45.9063 67.161 46.7348C66.9712 47.269 66.5752 47.9937 66.1599 48.6498C65.6732 49.4182 65.1868 49.9857 64.5367 50.6645C63.2191 52.0398 61.6634 53.1211 59.9778 53.9977C56.3866 55.8653 52.18 56.3003 48.3195 55.0739C46.393 54.4618 44.6301 53.3491 43.1176 52.0233C41.3442 50.4695 38.7352 53.0569 40.5203 54.6211C44.211 57.855 48.8085 59.6942 53.7508 59.4254C58.1233 59.1875 62.2256 57.3866 65.6076 54.6603C68.548 52.2899 70.7625 48.9775 71.2644 45.2007C71.3126 44.8388 71.3231 44.473 71.3188 44.1084C71.3165 43.9081 71.1906 42.4812 71.2353 43.1472C71.179 42.3038 70.7632 41.663 70.2157 41.0454C69.1913 39.8897 67.7633 39.0163 66.478 38.183C64.8174 37.1058 63.097 36.1096 61.3531 35.1692C60.7806 32.6192 60.0842 30.089 59.2747 27.6059C58.6403 25.6608 57.9173 23.703 56.9219 21.9105C56.2069 20.6228 55.254 19.5016 54.1711 18.5189C54.5483 18.1577 54.9533 17.8245 55.3624 17.5009C56.4824 16.6149 57.827 15.8022 59.0971 15.0633C61.2874 13.7893 63.6034 12.6485 66.0231 11.8541C66.0777 15.1271 66.1324 18.4 66.187 21.6729C66.2023 22.5962 67.0139 23.6117 68.0236 23.5095C72.5884 23.047 78.2143 24.9783 81.1455 28.8006C82.9079 31.0988 83.5856 33.9798 83.6832 36.7675C83.7203 37.8241 83.6679 38.8847 83.5514 39.9355C83.5462 39.9834 83.5423 40.0187 83.5391 40.0485C83.5189 40.1903 83.4962 40.3313 83.4724 40.4725C83.454 40.5797 83.4346 40.6874 83.4114 40.794C83.2301 41.6404 83.5324 42.3916 84.2555 42.8683C84.6873 43.1525 85.2382 43.5416 85.5556 43.7873C85.9775 44.1134 86.3829 44.4595 86.7735 44.8225C86.9185 44.957 87.0586 45.0996 87.1952 45.2451C86.4838 47.5733 85.0585 50.1319 82.8825 51.5682C80.7064 53.0042 77.8055 53.5483 75.2396 53.6464C74.3196 53.6814 73.394 53.6372 72.4789 53.5368C72.4589 53.5304 72.0251 53.4704 71.933 53.4536C71.8266 53.4344 71.7196 53.4133 71.6146 53.3881C69.3114 52.8394 68.3342 56.3814 70.6376 56.9303C73.0695 57.5096 75.6539 57.39 78.1034 57.0369C80.3159 56.7178 82.5667 55.9753 84.5117 54.8716C86.0252 54.0128 87.2 52.6747 88.1992 51.2783C89.4281 49.5603 90.3691 47.4876 90.9312 45.45C91.3555 43.9134 89.7196 42.4929 88.6857 41.6195Z" fill="white"/>
</svg>
